<svg width="24" height="24" viewBox="0 0 24 24" fill="none" xmlns="http://www.w3.org/2000/svg">
<g clip-path="url(#clip0_2_25)">
<path fill-rule="evenodd" clip-rule="evenodd" d="M23.8604 9.97078L23.6604 9.55439L23.3242 9.29067C22.8844 8.94623 20.6592 9.31462 20.0593 8.77078C19.6353 8.37839 19.571 7.67372 19.4423 6.72169C19.2026 4.87312 19.0505 4.77666 18.7628 4.1527C17.7142 1.92755 14.8733 0.255046 12.9207 0.0234833H7.63039C3.46874 0.0234364 0.0675354 3.43275 0.0675354 7.59417V16.4211C0.0675354 20.5748 3.46874 23.9766 7.63039 23.9766H16.3219C20.4833 23.9766 23.8604 20.5748 23.8844 16.421L23.9324 10.307L23.8604 9.97078ZM7.7263 6.20939H11.9199C12.7201 6.20939 13.3687 6.8579 13.3687 7.65033C13.3687 8.44214 12.7201 9.0983 11.9199 9.0983H7.7263C6.92629 9.0983 6.27782 8.44214 6.27782 7.65033C6.27777 6.8579 6.92629 6.20939 7.7263 6.20939ZM16.2494 17.7497H7.7263C6.92629 17.7497 6.27782 17.0935 6.27782 16.3093C6.27782 15.5169 6.92629 14.8689 7.7263 14.8689H16.2494C17.0424 14.8689 17.6904 15.5169 17.6904 16.3093C17.6904 17.0935 17.0424 17.7497 16.2494 17.7497Z" fill="#F2780C"/>
</g>
<defs>
<clipPath id="clip0_2_25">
<rect width="24" height="24" fill="white"/>
</clipPath>
</defs>
</svg>
