<svg width="20" height="20" viewBox="0 0 20 20" fill="none" xmlns="http://www.w3.org/2000/svg">
<g id="comment-alt-lines-svgrepo-com 1">
<path id="Vector" d="M12.7999 7.2136C13.1313 7.2136 13.3999 7.48224 13.3999 7.8136C13.3999 8.14497 13.1313 8.4136 12.7999 8.4136V7.2136ZM7.19992 8.4136C6.86856 8.4136 6.59992 8.14497 6.59992 7.8136C6.59992 7.48224 6.86856 7.2136 7.19992 7.2136V8.4136ZM12.0999 9.2608C12.4313 9.2608 12.6999 9.52944 12.6999 9.8608C12.6999 10.1922 12.4313 10.4608 12.0999 10.4608V9.2608ZM7.89992 10.4608C7.56856 10.4608 7.29992 10.1922 7.29992 9.8608C7.29992 9.52944 7.56856 9.2608 7.89992 9.2608V10.4608ZM12.6695 4.4V3.79999L12.6739 3.80002L12.6695 4.4ZM7.32952 4.4L7.32496 3.8H7.32952V4.4ZM4.39992 7.3736L4.99992 7.3692V7.3736H4.39992ZM4.39992 10.984H4.99992V10.9884L4.39992 10.984ZM7.33032 13.9576V14.5576H7.32592L7.33032 13.9576ZM12.6695 13.9576V13.3576C12.7722 13.3576 12.8733 13.384 12.9629 13.4342L12.6695 13.9576ZM15.5999 15.6H16.1999C16.1999 15.813 16.087 16.01 15.9032 16.1177C15.7195 16.2254 15.4924 16.2275 15.3066 16.1234L15.5999 15.6ZM15.5999 7.3736H14.9999L14.9999 7.3692L15.5999 7.3736ZM12.7999 8.4136H7.19992V7.2136H12.7999V8.4136ZM12.0999 10.4608H7.89992V9.2608H12.0999V10.4608ZM12.6695 5H7.32952V3.8L12.6695 3.79999V5ZM7.33408 4.99999C6.03528 5.0098 4.9904 6.07045 4.99992 7.3692L3.79992 7.37801C3.78552 5.41664 5.3636 3.81484 7.32496 3.8L7.33408 4.99999ZM4.99992 7.3736V10.984H3.79992V7.3736H4.99992ZM4.99992 10.9884C4.99536 11.6122 5.23872 12.2122 5.67664 12.6566L4.82192 13.4989C4.16063 12.8278 3.79304 11.9217 3.79992 10.9796L4.99992 10.9884ZM5.67664 12.6566C6.11448 13.1009 6.71088 13.353 7.33472 13.3576L7.32592 14.5576C6.38392 14.5507 5.48312 14.1699 4.82192 13.4989L5.67664 12.6566ZM7.33032 13.3576H12.6695V14.5576H7.33032V13.3576ZM12.9629 13.4342L15.8933 15.0766L15.3066 16.1234L12.3762 14.481L12.9629 13.4342ZM14.9999 15.6L14.9999 7.3736H16.1999V15.6H14.9999ZM14.9999 7.3692C15.0045 6.7454 14.7611 6.14534 14.3232 5.70102L15.1779 4.85872C15.8392 5.52973 16.2068 6.43596 16.1999 7.37801L14.9999 7.3692ZM14.3232 5.70102C13.8854 5.25671 13.2889 5.00453 12.6651 4.99999L12.6739 3.80002C13.6159 3.80688 14.5167 4.18772 15.1779 4.85872L14.3232 5.70102Z" fill="#BCC8D8"/>
</g>
</svg>
